<svg xmlns="http://www.w3.org/2000/svg" viewBox="0 0 150 150">
  <path d="m121.8 42.9-.8-4.3c-.8-3.2-2.6-6.3-6-7.1-1.4-.4-3.4-.8-4-3.6l-1.9-10.5c-.8-3.9-2.6-5.4-6.3-6.9-3.5-1.3-9.4-2.8-19.3-3.2-12.6-.6-22.1 0-29.4.9-10.8 1.5-16.5 4.2-16.5 8.6 0 2.5 1.5 4.7 4.6 5.9 4.3 1.9 12.8 3.9 30.6 4.2 6.8 0 13.6-.4 20.6-1.2 3.9-.5 4.1-7.5-1.2-7.5-6.2.8-12.2 1.2-18.6 1.2-8.7 0-15.6-.4-22.2-1.8-.7-.2-.9-1.2.1-1.3 5.3-1.2 13-1.8 21.9-1.8 7.4 0 15.5.6 20 1.4l5.1.9c2 .6 2.9 1.6 3.1 3l2.2 10.5c.2.8-.4 1.4-1 1.4-7.2.8-16 1.9-27.8 1.9s-21.9-.7-34.9-2.9c-5.7-.8-10 2.2-11.3 6.9L27.4 44c-.8 4.7 2 10.7 7.8 11.7 11.7 1.9 23.7 3.6 39.2 3.6 8.3 0 18-.5 25.5-1.3 1.9-.2 3.5 1.2 3.1 3.2L96.5 126c-.4 5.3-3.1 8.4-8.2 9.4-2.9.4-6.2.8-9.7 1l-11.4-.2c-8.3.2-12.9-2.4-13.9-10.6l-6.4-60.5c-.6-4.7-6.8-4.9-8-.4l6.9 64.6c.7 7.1 6.1 11.8 13.9 12.8 5.2.8 13.2 1 21.1 1 3.7 0 7.9-.4 10.5-1 6.6-1.6 11.9-6.1 12.7-13.6l7.4-70.1c.2-1 1.2-2.1 2.2-2.3 7.4-.8 9.4-6.4 8.4-12.3zm-11 5.4c-7.8 1-20.3 2.8-35.8 3-12.8 0-23.5-1-37.4-3.4-2.4-.4-3-1.6-2.6-4.7.6-4.1 1.4-5.6 5.3-5.1 3.3.4 5.8 1.4 13.6 2 13.3 1.2 30.6 2 55.2-2 3.7-.5 5.5.6 5.3 6.5 0 2.3-2 3.5-3.6 3.7" style="fill:#FFFFFF"/>
  <path d="m51.3 73.3 5.2 51.5c.5 3.7 3.6 7.3 8 7.7 6 .4 12.5.6 20.5 0 3.7 0 7.6-3.2 8-7.5l5.3-57.2c-14.2-4.9-19.7 4.7-35.1 6.5-5.8.4-9.5-.4-11.9-1" style="fill:#fee00d">
    <animate attributeName="d" dur="5s" repeatCount="indefinite" calcMode="spline" keySplines="0.4 0 0.2 1; 0.4 0 0.2 1; 0.4 0 0.2 1" keyTimes="0; 0.5; 0.8; 1" values="m55.5 115 1.0 9.8c0.5 3.7 3.6 7.3 8 7.7 6 0.4 12.5 0.6 20.5 0 3.7 0 7.6-3.2 8-7.5l1.1-12.0c-11.6-1.8-16.2 1.7-28.8 2.3-4.8 0.1-7.8-0.1-9.8-0.3z; m51.3 73.3 5.2 51.5c0.5 3.7 3.6 7.3 8 7.7 6 0.4 12.5 0.6 20.5 0 3.7 0 7.6-3.2 8-7.5l5.3-57.2c-14.2-4.9-19.7 4.7-35.1 6.5-5.8 0.4-9.5-0.4-11.9-1z; m51.3 73.3 5.2 51.5c0.5 3.7 3.6 7.3 8 7.7 6 0.4 12.5 0.6 20.5 0 3.7 0 7.6-3.2 8-7.5l5.3-57.2c-14.2-4.9-19.7 4.7-35.1 6.5-5.8 0.4-9.5-0.4-11.9-1z; m55.5 115 1.0 9.8c0.5 3.7 3.6 7.3 8 7.7 6 0.4 12.5 0.6 20.5 0 3.7 0 7.6-3.2 8-7.5l1.1-12.0c-11.6-1.8-16.2 1.7-28.8 2.3-4.8 0.1-7.8-0.1-9.8-0.3z"/>
  </path>
</svg>
